<svg xmlns="http://www.w3.org/2000/svg" width="1280" height="640" viewBox="0 0 1280 640" role="img" aria-labelledby="title desc">
<title id="title">Your agent. Your Mac's calendars.</title>
<desc id="desc">Apple Calendar Helper connects an agent to the calendars on a Mac using local files and macOS calendar permission. Illustration, not an app screenshot.</desc>
<style>text{font-family:system-ui,-apple-system,sans-serif;fill:#1e2b32}.label{font-size:32px;font-weight:600}.note{font-size:23px;fill:#57646b}.light{fill:#f7f4eb}</style>
<rect width="1280" height="640" fill="#f4f1e9"/>
<text x="64" y="57" font-size="22" font-weight="650" letter-spacing="2">APPLE CALENDAR HELPER</text>
<text x="61" y="144" font-size="76" font-weight="700" letter-spacing="-2">Your agent.</text>
<text x="61" y="231" font-size="76" font-weight="700" letter-spacing="-2">Your Mac's calendars.</text>
<text x="64" y="292" font-size="34">Read events. Make changes when you ask.</text>
<rect x="64" y="339" width="320" height="211" rx="22" fill="#ffffff" stroke="#d6d8d2" stroke-width="2"/>
<rect x="480" y="339" width="320" height="211" rx="22" fill="#223d42"/>
<rect x="896" y="339" width="320" height="211" rx="22" fill="#ffffff" stroke="#d6d8d2" stroke-width="2"/>
<g fill="none" stroke="#223d42" stroke-width="4" stroke-linecap="round" stroke-linejoin="round">
<path d="M99 368h62v40h-39l-16 12v-12h-7z"/><path d="M111 381h38m-38 12h24"/>
</g>
<text x="98" y="464" class="label">Your agent</text>
<text x="98" y="506" class="note">Sends a local command</text>
<g fill="none" stroke="#f7f4eb" stroke-width="4" stroke-linecap="round" stroke-linejoin="round">
<rect x="514" y="365" width="62" height="45" rx="7"/><path d="M526 422h38m-19-12v12m-15-43-7 7 7 7m29-14 7 7-7 7"/>
</g>
<text x="514" y="464" class="label light">Calendar helper</text>
<text x="514" y="506" font-size="23" class="light">Runs on your Mac</text>
<g fill="none" stroke="#223d42" stroke-width="4" stroke-linecap="round" stroke-linejoin="round">
<rect x="932" y="366" width="62" height="52" rx="7"/><path d="M946 359v14m34-14v14m-48 11h62"/>
</g>
<rect x="944" y="394" width="10" height="10" rx="2" fill="#8b68ad"/><rect x="960" y="394" width="10" height="10" rx="2" fill="#d19c58"/><rect x="976" y="394" width="10" height="10" rx="2" fill="#4f9190"/>
<text x="930" y="464" class="label">Your calendars</text>
<text x="930" y="506" class="note">Accounts in Calendar</text>
<g fill="none" stroke="#bb7950" stroke-width="5" stroke-linecap="round" stroke-linejoin="round"><path d="M409 441h45m-13-13 13 13-13 13m383-13h45m-13-13 13 13-13 13"/></g>
<text x="64" y="603" font-size="24" fill="#57646b">Local files · macOS calendar permission · No hosted service</text>
</svg>
